<mxfile host="app.diagrams.net" agent="Mozilla/5.0 (Windows NT 10.0; Win64; x64) AppleWebKit/537.36 (KHTML, like Gecko) Chrome/138.0.0.0 Safari/537.36" version="28.0.6">
  <diagram name="PÃ¡gina-1" id="dTBnwyviV0WnCG-R-6bP">
    <mxGraphModel grid="1" page="1" gridSize="10" guides="1" tooltips="1" connect="1" arrows="1" fold="1" pageScale="1" pageWidth="827" pageHeight="1169" math="0" shadow="0">
      <root>
        <mxCell id="0" />
        <mxCell id="1" parent="0" />
        <mxCell id="onX84u7IJ95srJftHmNX-1" value="" style="html=1;verticalAlign=bottom;startArrow=oval;startFill=1;endArrow=block;startSize=8;curved=0;rounded=0;" edge="1" parent="1">
          <mxGeometry width="60" relative="1" as="geometry">
            <mxPoint x="550" y="130" as="sourcePoint" />
            <mxPoint x="550" y="210" as="targetPoint" />
          </mxGeometry>
        </mxCell>
        <mxCell id="onX84u7IJ95srJftHmNX-2" style="edgeStyle=orthogonalEdgeStyle;rounded=0;orthogonalLoop=1;jettySize=auto;html=1;" edge="1" parent="1" source="onX84u7IJ95srJftHmNX-3" target="onX84u7IJ95srJftHmNX-6">
          <mxGeometry relative="1" as="geometry" />
        </mxCell>
        <mxCell id="onX84u7IJ95srJftHmNX-3" value="Ref" style="shape=umlFrame;whiteSpace=wrap;html=1;pointerEvents=0;" vertex="1" parent="1">
          <mxGeometry x="440" y="210" width="250" height="90" as="geometry" />
        </mxCell>
        <mxCell id="onX84u7IJ95srJftHmNX-4" value="Buscar encuesta" style="text;html=1;align=center;verticalAlign=middle;resizable=0;points=[];autosize=1;strokeColor=none;fillColor=none;" vertex="1" parent="1">
          <mxGeometry x="495" y="248" width="110" height="30" as="geometry" />
        </mxCell>
        <mxCell id="onX84u7IJ95srJftHmNX-5" style="edgeStyle=orthogonalEdgeStyle;rounded=0;orthogonalLoop=1;jettySize=auto;html=1;" edge="1" parent="1" source="onX84u7IJ95srJftHmNX-6" target="onX84u7IJ95srJftHmNX-9">
          <mxGeometry relative="1" as="geometry" />
        </mxCell>
        <mxCell id="onX84u7IJ95srJftHmNX-6" value="Ref" style="shape=umlFrame;whiteSpace=wrap;html=1;pointerEvents=0;" vertex="1" parent="1">
          <mxGeometry x="440" y="390" width="250" height="90" as="geometry" />
        </mxCell>
        <mxCell id="onX84u7IJ95srJftHmNX-7" value="Ver listado de encuesta" style="text;html=1;align=center;verticalAlign=middle;resizable=0;points=[];autosize=1;strokeColor=none;fillColor=none;" vertex="1" parent="1">
          <mxGeometry x="475" y="428" width="150" height="30" as="geometry" />
        </mxCell>
        <mxCell id="onX84u7IJ95srJftHmNX-8" style="edgeStyle=orthogonalEdgeStyle;rounded=0;orthogonalLoop=1;jettySize=auto;html=1;" edge="1" parent="1" source="onX84u7IJ95srJftHmNX-9">
          <mxGeometry relative="1" as="geometry">
            <mxPoint x="765" y="650" as="targetPoint" />
          </mxGeometry>
        </mxCell>
        <mxCell id="onX84u7IJ95srJftHmNX-9" value="" style="rhombus;whiteSpace=wrap;html=1;" vertex="1" parent="1">
          <mxGeometry x="533.5" y="560" width="63" height="50" as="geometry" />
        </mxCell>
        <mxCell id="onX84u7IJ95srJftHmNX-10" style="edgeStyle=orthogonalEdgeStyle;rounded=0;orthogonalLoop=1;jettySize=auto;html=1;" edge="1" parent="1" source="onX84u7IJ95srJftHmNX-11" target="onX84u7IJ95srJftHmNX-18">
          <mxGeometry relative="1" as="geometry" />
        </mxCell>
        <mxCell id="onX84u7IJ95srJftHmNX-11" value="Sd pregunta&amp;nbsp;" style="shape=umlFrame;whiteSpace=wrap;html=1;pointerEvents=0;" vertex="1" parent="1">
          <mxGeometry x="130" y="650" width="360" height="250" as="geometry" />
        </mxCell>
        <mxCell id="onX84u7IJ95srJftHmNX-12" value="pregunta&amp;nbsp;" style="text;html=1;align=center;verticalAlign=middle;resizable=0;points=[];autosize=1;strokeColor=none;fillColor=none;" vertex="1" parent="1">
          <mxGeometry x="260" y="710" width="70" height="30" as="geometry" />
        </mxCell>
        <mxCell id="onX84u7IJ95srJftHmNX-13" style="edgeStyle=orthogonalEdgeStyle;rounded=0;orthogonalLoop=1;jettySize=auto;html=1;entryX=0.5;entryY=0;entryDx=0;entryDy=0;" edge="1" parent="1" target="onX84u7IJ95srJftHmNX-18">
          <mxGeometry relative="1" as="geometry">
            <mxPoint x="640" y="695" as="sourcePoint" />
          </mxGeometry>
        </mxCell>
        <mxCell id="onX84u7IJ95srJftHmNX-14" value="descripcion" style="text;html=1;align=center;verticalAlign=middle;resizable=0;points=[];autosize=1;strokeColor=none;fillColor=none;" vertex="1" parent="1">
          <mxGeometry x="770" y="730" width="80" height="30" as="geometry" />
        </mxCell>
        <mxCell id="onX84u7IJ95srJftHmNX-15" value="Ref" style="shape=umlFrame;whiteSpace=wrap;html=1;pointerEvents=0;" vertex="1" parent="1">
          <mxGeometry x="450" y="1230" width="250" height="90" as="geometry" />
        </mxCell>
        <mxCell id="onX84u7IJ95srJftHmNX-16" value="Envia encuesta" style="text;html=1;align=center;verticalAlign=middle;resizable=0;points=[];autosize=1;strokeColor=none;fillColor=none;" vertex="1" parent="1">
          <mxGeometry x="518" y="1260" width="110" height="30" as="geometry" />
        </mxCell>
        <mxCell id="onX84u7IJ95srJftHmNX-17" style="edgeStyle=orthogonalEdgeStyle;rounded=0;orthogonalLoop=1;jettySize=auto;html=1;entryX=0.447;entryY=0.013;entryDx=0;entryDy=0;entryPerimeter=0;" edge="1" parent="1" source="onX84u7IJ95srJftHmNX-9" target="onX84u7IJ95srJftHmNX-11">
          <mxGeometry relative="1" as="geometry" />
        </mxCell>
        <mxCell id="onX84u7IJ95srJftHmNX-18" value="" style="rounded=0;whiteSpace=wrap;html=1;" vertex="1" parent="1">
          <mxGeometry x="510" y="1110" width="120" height="20" as="geometry" />
        </mxCell>
        <mxCell id="onX84u7IJ95srJftHmNX-19" style="edgeStyle=orthogonalEdgeStyle;rounded=0;orthogonalLoop=1;jettySize=auto;html=1;entryX=0.479;entryY=0.042;entryDx=0;entryDy=0;entryPerimeter=0;" edge="1" parent="1" source="onX84u7IJ95srJftHmNX-18" target="onX84u7IJ95srJftHmNX-15">
          <mxGeometry relative="1" as="geometry" />
        </mxCell>
        <mxCell id="onX84u7IJ95srJftHmNX-20" style="edgeStyle=orthogonalEdgeStyle;rounded=0;orthogonalLoop=1;jettySize=auto;html=1;entryX=0.51;entryY=0.007;entryDx=0;entryDy=0;entryPerimeter=0;" edge="1" parent="1" source="onX84u7IJ95srJftHmNX-15">
          <mxGeometry relative="1" as="geometry">
            <mxPoint x="575.5" y="1450.63" as="targetPoint" />
          </mxGeometry>
        </mxCell>
        <mxCell id="onX84u7IJ95srJftHmNX-21" value="" style="ellipse;html=1;shape=endState;fillColor=#000000;strokeColor=#ff0000;" vertex="1" parent="1">
          <mxGeometry x="558" y="1450" width="30" height="30" as="geometry" />
        </mxCell>
        <mxCell id="onX84u7IJ95srJftHmNX-22" value="Sd descripcion" style="shape=umlFrame;whiteSpace=wrap;html=1;pointerEvents=0;" vertex="1" parent="1">
          <mxGeometry x="640" y="650" width="360" height="250" as="geometry" />
        </mxCell>
        <mxCell id="onX84u7IJ95srJftHmNX-23" value="cliente&amp;nbsp;" style="shape=umlLifeline;perimeter=lifelinePerimeter;whiteSpace=wrap;html=1;container=1;dropTarget=0;collapsible=0;recursiveResize=0;outlineConnect=0;portConstraint=eastwest;newEdgeStyle={&quot;curved&quot;:0,&quot;rounded&quot;:0};" vertex="1" parent="1">
          <mxGeometry x="170" y="680" width="80" height="192" as="geometry" />
        </mxCell>
        <mxCell id="onX84u7IJ95srJftHmNX-24" value="cliente&amp;nbsp;" style="shape=umlLifeline;perimeter=lifelinePerimeter;whiteSpace=wrap;html=1;container=1;dropTarget=0;collapsible=0;recursiveResize=0;outlineConnect=0;portConstraint=eastwest;newEdgeStyle={&quot;curved&quot;:0,&quot;rounded&quot;:0};" vertex="1" parent="1">
          <mxGeometry x="370" y="680" width="80" height="192" as="geometry" />
        </mxCell>
        <mxCell id="onX84u7IJ95srJftHmNX-27" value="" style="html=1;points=[[0,0,0,0,5],[0,1,0,0,-5],[1,0,0,0,5],[1,1,0,0,-5]];perimeter=orthogonalPerimeter;outlineConnect=0;targetShapes=umlLifeline;portConstraint=eastwest;newEdgeStyle={&quot;curved&quot;:0,&quot;rounded&quot;:0};" vertex="1" parent="onX84u7IJ95srJftHmNX-24">
          <mxGeometry x="34" y="70" width="10" height="80" as="geometry" />
        </mxCell>
        <mxCell id="onX84u7IJ95srJftHmNX-25" value="cliente&amp;nbsp;" style="shape=umlLifeline;perimeter=lifelinePerimeter;whiteSpace=wrap;html=1;container=1;dropTarget=0;collapsible=0;recursiveResize=0;outlineConnect=0;portConstraint=eastwest;newEdgeStyle={&quot;curved&quot;:0,&quot;rounded&quot;:0};" vertex="1" parent="1">
          <mxGeometry x="670" y="680" width="80" height="192" as="geometry" />
        </mxCell>
        <mxCell id="onX84u7IJ95srJftHmNX-26" value="cliente&amp;nbsp;" style="shape=umlLifeline;perimeter=lifelinePerimeter;whiteSpace=wrap;html=1;container=1;dropTarget=0;collapsible=0;recursiveResize=0;outlineConnect=0;portConstraint=eastwest;newEdgeStyle={&quot;curved&quot;:0,&quot;rounded&quot;:0};" vertex="1" parent="1">
          <mxGeometry x="880" y="680" width="80" height="192" as="geometry" />
        </mxCell>
        <mxCell id="onX84u7IJ95srJftHmNX-29" value="" style="html=1;points=[[0,0,0,0,5],[0,1,0,0,-5],[1,0,0,0,5],[1,1,0,0,-5]];perimeter=orthogonalPerimeter;outlineConnect=0;targetShapes=umlLifeline;portConstraint=eastwest;newEdgeStyle={&quot;curved&quot;:0,&quot;rounded&quot;:0};" vertex="1" parent="onX84u7IJ95srJftHmNX-26">
          <mxGeometry x="35" y="80" width="10" height="80" as="geometry" />
        </mxCell>
        <mxCell id="onX84u7IJ95srJftHmNX-28" value="" style="html=1;verticalAlign=bottom;startArrow=oval;endArrow=block;startSize=8;curved=0;rounded=0;entryX=0;entryY=0;entryDx=0;entryDy=5;" edge="1" parent="1" source="onX84u7IJ95srJftHmNX-23" target="onX84u7IJ95srJftHmNX-27">
          <mxGeometry relative="1" as="geometry">
            <mxPoint x="251" y="805" as="sourcePoint" />
          </mxGeometry>
        </mxCell>
        <mxCell id="onX84u7IJ95srJftHmNX-30" value="" style="html=1;verticalAlign=bottom;startArrow=oval;endArrow=block;startSize=8;curved=0;rounded=0;entryX=0;entryY=0;entryDx=0;entryDy=5;" edge="1" parent="1" source="onX84u7IJ95srJftHmNX-25" target="onX84u7IJ95srJftHmNX-29">
          <mxGeometry relative="1" as="geometry">
            <mxPoint x="790" y="797" as="sourcePoint" />
          </mxGeometry>
        </mxCell>
      </root>
    </mxGraphModel>
  </diagram>
</mxfile>
